<svg width="16" height="16" viewBox="0 0 16 16" fill="none" xmlns="http://www.w3.org/2000/svg">
<path fill-rule="evenodd" clip-rule="evenodd" d="M12.798 6.5969L14.6356 5.53452L13.4461 3.46686L11.6156 4.52561L11.0824 4.10207C10.7016 3.79956 10.2771 3.5518 9.81966 3.37063L9.18787 3.12042V1H6.81097V3.12019L6.17947 3.37051C5.73987 3.54477 5.33217 3.77957 4.96834 4.06549L4.42924 4.48915L2.60518 3.40565L1.39387 5.45743L3.21483 6.53888L3.10837 7.20905C3.06424 7.4869 3.03789 7.74676 3.03789 8.00059C3.03789 8.23443 3.06103 8.47429 3.09933 8.73138L3.19948 9.40356L1.36416 10.4664L2.55434 12.5346L4.38359 11.4737L4.91752 11.8982C5.29784 12.2006 5.72346 12.4472 6.18212 12.6305L6.81097 12.8819V15H9.18787V12.8817L9.817 12.6304C10.2596 12.4537 10.6686 12.2188 11.0307 11.9344L11.5694 11.5112L13.3951 12.5942L14.6072 10.5418L12.7819 9.45927L12.8924 8.78554C12.9368 8.51513 12.9621 8.25717 12.9621 8.0002C12.9621 7.76496 12.939 7.52641 12.9003 7.27124L12.798 6.5969ZM15.9759 10.1909L13.7466 13.9654L11.6484 12.7208C11.2091 13.0658 10.7166 13.348 10.1879 13.5591V16H5.81097V13.5591C5.26317 13.3402 4.75273 13.0447 4.2952 12.681L2.18806 13.903L0 10.1007L2.11025 8.87874C2.06745 8.59149 2.03789 8.29955 2.03789 8.00059C2.03789 7.6782 2.07134 7.36324 2.12075 7.05218L0.0256785 5.80793L2.25381 2.03381L4.35044 3.27923C4.79047 2.93343 5.28224 2.65047 5.81097 2.44088V0H10.1879V2.44088C10.7388 2.65906 11.2484 2.95685 11.7044 3.31904L13.8131 2.09938L16 5.90082L13.889 7.12126C13.9325 7.40851 13.9621 7.69967 13.9621 8.0002C13.9621 8.32336 13.9302 8.63676 13.8792 8.94743L15.9759 10.1909Z" fill="#4D4D4D"/>
<path fill-rule="evenodd" clip-rule="evenodd" d="M8 10C9.10457 10 10 9.10457 10 8C10 6.89543 9.10457 6 8 6C6.89543 6 6 6.89543 6 8C6 9.10457 6.89543 10 8 10ZM8 11C9.65685 11 11 9.65685 11 8C11 6.34315 9.65685 5 8 5C6.34315 5 5 6.34315 5 8C5 9.65685 6.34315 11 8 11Z" fill="#4D4D4D"/>
</svg>
